<svg height="479pt" viewBox="-7 0 479 479.96999" width="479pt" xmlns="http://www.w3.org/2000/svg" xmlns:xlink="http://www.w3.org/1999/xlink"><linearGradient id="lg1"><stop offset="0" stop-color="#fff200"/><stop offset="1" stop-color="#cd118c"/></linearGradient><linearGradient id="linear0" gradientUnits="userSpaceOnUse" x1="-40.803" x2="464.605" xlink:href="#lg1" y1="487.69" y2="32.818"/><linearGradient id="linear1" gradientUnits="userSpaceOnUse" x1="5.165" x2="510.573" xlink:href="#lg1" y1="538.762" y2="83.898"/><linearGradient id="linear2" gradientUnits="userSpaceOnUse" x1="-106.115" x2="399.285" xlink:href="#lg1" y1="415.114" y2="-39.75"/><path d="m464.484375 239.96875c.109375-33.324219-14.679687-64.957031-40.320313-86.25-25.640624-21.289062-59.453124-30.011719-92.191406-23.78125-19.304687-83.140625-97.910156-138.570312-182.707031-128.84375-84.796875 9.730469-148.804687 81.523438-148.78125 166.875 0 76.640625 111.417969 205.875 149.679687 248h-45.679687v16h128v-16h-45.75c29.300781-32.296875 56.808594-66.175781 82.398437-101.488281 15.636719 17.554687 36.402344 29.742187 59.351563 34.832031v10.65625c-4.417969 0-8 3.582031-8 8v80c0 17.675781 14.328125 32 32 32s32-14.324219 32-32v-80c0-4.417969-3.582031-8-8-8v-10.65625c51.335937-11.316406 87.921875-56.773438 88-109.34375zm-296 172.273438c-28.457031-30.894532-152-169.375-152-244.273438-.007813-77.296875 58.023437-142.277344 134.832031-150.972656 76.808594-8.695313 147.898438 41.667968 165.167969 117.015625-32.8125 11.074219-58.632813 36.742187-69.910156 69.488281-11.273438 32.746094-6.726563 68.867188 12.3125 97.796875-27.863281 38.777344-58.050781 75.824219-90.402344 110.945313zm88-172.273438c0-53.019531 42.980469-96 96-96s96 42.980469 96 96-42.980469 96-96 96c-52.996094-.054688-95.941406-43.003906-96-96zm112 208c0 8.835938-7.164063 16-16 16s-16-7.164062-16-16v-72h32zm-8-88h-16v-8.40625c2.65625.191406 5.296875.40625 8 .40625s5.34375-.214844 8-.40625zm0 0" fill="url(#linear0)"/><path d="m352.484375 303.96875c-35.34375 0-64-28.652344-64-64 0-35.34375 28.65625-64 64-64v-16c-44.183594 0-80 35.820312-80 80 0 44.183594 35.816406 80 80 80zm0 0" fill="url(#linear1)"/><path d="m168.484375 87.96875c-44.183594 0-80 35.820312-80 80 0 44.183594 35.816406 80 80 80s80-35.816406 80-80c-.046875-44.160156-35.835937-79.949219-80-80zm0 144c-35.34375 0-64-28.652344-64-64 0-35.34375 28.65625-64 64-64 35.347656 0 64 28.65625 64 64-.039063 35.332031-28.667969 63.960938-64 64zm0 0" fill="url(#linear2)"/></svg>